<svg width="144" height="144" viewBox="0 0 144 144" fill="none" xmlns="http://www.w3.org/2000/svg">
<g clip-path="url(#clip0_2_2)">
<path fill-rule="evenodd" clip-rule="evenodd" d="M72 0C91.0956 0 109.409 7.58569 122.912 21.0883C136.414 34.5909 144 52.9044 144 72C144 86.2403 139.777 100.161 131.866 112.001C123.954 123.841 112.709 133.07 99.5532 138.519C86.3969 143.969 71.9201 145.395 57.9535 142.617C43.9869 139.838 31.1577 132.981 21.0883 122.912C11.0189 112.842 4.1616 100.013 1.38346 86.0465C-1.39467 72.0799 0.0311656 57.6031 5.48068 44.4468C10.9302 31.2905 20.1586 20.0457 31.9989 12.1342C43.8393 4.22273 57.7597 0 72 0V0Z" fill="black"/>
<path fill-rule="evenodd" clip-rule="evenodd" d="M66.9479 125.446H86.6384V72H100.422C101.734 72 101.93 64.6674 102.087 63.257C102.414 60.321 102.954 56.6552 102.954 53.7158H86.6384V41.9015C86.6384 38.3575 89.5983 36.8382 93.1082 36.8382H102.954V18.5541H101.828C88.6444 18.5541 78.5457 17.3126 71.6592 24.1092C69.0542 26.6801 67.1252 32.1318 66.9556 37.1272C66.8668 39.743 66.6666 42.7471 66.6666 45.8396C66.6666 47.4759 67.3051 53.7158 65.8227 53.7158H53.1645V72H66.6666L66.9479 125.446Z" fill="#FEFEFE"/>
</g>
<defs>
<clipPath id="clip0_2_2">
<rect width="144" height="144" fill="white"/>
</clipPath>
</defs>
</svg>
